<svg xmlns="http://www.w3.org/2000/svg" width="200" height="200" viewBox="0 0 200 200"><path fill="#CDCCCC" d="M121.162 169.27c-1.136.314-2.27.605-3.422.87 1.152-.266 2.286-.557 3.422-.87m-13.633 2.62c-1.1.114-2.205.192-3.314.275 1.11-.083 2.215-.16 3.313-.275m-94.134-98.6c.187-1.24.41-2.472.646-3.7-.234 1.227-.457 2.458-.646 3.7m2.44 36.913c-.45-1.554-.853-3.124-1.213-4.712.36 1.59.764 3.16 1.213 4.713M130.04 166.27c-1.265.506-2.525.98-3.816 1.423 1.29-.443 2.556-.918 3.816-1.422M12.438 86.196v-.015.015zm113.183 81.7c-1.19.402-2.39.776-3.603 1.13 1.21-.348 2.413-.723 3.604-1.13M12.547 81.816c.04-.783.115-1.556.17-2.33-.055.774-.13 1.548-.17 2.33m.322-4.302c.11-1.078.254-2.142.398-3.21-.144 1.068-.29 2.132-.398 3.21m99.244 93.747c-1.062.177-2.136.317-3.203.447 1.067-.13 2.14-.27 3.202-.447m4.544-.87c-1.084.24-2.18.447-3.277.646 1.098-.2 2.192-.407 3.276-.646m-91.792-39.497c15.06 24.882 42.305 41.497 73.417 41.497 1.56 0 3.103-.048 4.645-.13-1.542.082-3.086.13-4.644.13-31.115 0-58.357-16.616-73.416-41.497m109.548 33.488c-1.333.626-2.687 1.21-4.05 1.767 1.368-.558 2.717-1.14 4.05-1.766M14.124 69.144c.267-1.338.57-2.668.9-3.985-.33 1.32-.635 2.647-.9 3.985m.916-4.07c1.022-4.05 2.323-7.988 3.89-11.787-1.567 3.8-2.874 7.737-3.89 11.786m169.088 21.123C184.128 38.593 145.69 0 98.28 0 62.483 0 31.814 22.01 18.93 53.28c12.698 56.61 58.248 100.73 115.487 111.1 29.353-13.698 49.71-43.546 49.71-78.185M18.932 53.28c-1.567 3.804-2.868 7.743-3.89 11.792l-.02.086c-.332 1.317-.63 2.645-.9 3.985-.03.146-.05.294-.078.448-.24 1.228-.46 2.46-.647 3.7-.053.334-.08.675-.13 1.014-.147 1.064-.29 2.13-.396 3.207-.067.655-.102 1.315-.155 1.972-.055.778-.132 1.55-.17 2.335-.07 1.445-.11 2.903-.112 4.366v.016c0 6.635.773 13.086 2.188 19.297.36 1.588.765 3.156 1.214 4.712 2.12 7.34 5.157 14.293 9.025 20.688 15.056 24.883 42.303 41.497 73.416 41.497 1.558 0 3.105-.048 4.642-.13.435-.026.86-.068 1.296-.1 1.11-.078 2.215-.16 3.313-.275.46-.06.917-.12 1.38-.177 1.067-.136 2.142-.276 3.2-.448.424-.067.844-.15 1.27-.225 1.1-.197 2.193-.406 3.27-.646.37-.078.723-.166 1.086-.25 1.15-.27 2.29-.557 3.422-.868.285-.085.576-.167.855-.245 1.214-.353 2.412-.724 3.604-1.13.202-.067.4-.135.607-.203 1.28-.447 2.558-.917 3.813-1.422.108-.04.218-.082.326-.13 1.368-.552 2.717-1.14 4.044-1.76h.006C77.178 154.01 31.628 109.895 18.93 53.28M98.28 0c35.95 20.168 60.256 53.112 60.256 97.395 0 43.976-23.97 82.325-59.51 102.605 50.067-7.237 88.54-50.488 88.54-102.762C187.565 44.708 152.205 0 98.28 0"/></svg>