<svg xmlns="http://www.w3.org/2000/svg" width="521.942" height="75.024" viewBox="0 0 521.942 75.024"><path fill="#0D71B9" d="M40.95 63.496c-.426.118-.855.225-1.288.326.433-.1.86-.21 1.288-.326M35.817 64.476c-.413.045-.83.075-1.247.104.417-.03.834-.06 1.247-.104M.362 27.492c.07-.466.153-.928.243-1.387-.088.46-.173.92-.243 1.387M1.28 41.34c-.168-.584-.32-1.173-.456-1.77.136.597.288 1.186.457 1.77M44.293 62.37c-.473.19-.95.367-1.435.534.485-.167.963-.345 1.435-.533M0 32.333v-.006.006M42.63 62.98c-.448.152-.9.292-1.356.423.456-.13.908-.272 1.356-.422M.042 30.69c.015-.294.043-.584.065-.876-.022.292-.05.582-.065.876M.164 29.076c.04-.404.095-.804.15-1.204-.055.4-.11.8-.15 1.204M37.542 64.242c-.4.065-.802.118-1.206.168.404-.05.807-.103 1.206-.168M39.252 63.916c-.408.09-.82.168-1.233.24.413-.073.824-.15 1.232-.24M4.68 49.1c5.672 9.332 15.934 15.566 27.653 15.566.586 0 1.17-.017 1.748-.048-.578.03-1.16.048-1.747.048-11.72 0-21.98-6.234-27.652-15.567M45.94 61.662c-.5.233-1.01.453-1.524.66.516-.207 1.023-.427 1.525-.66M.636 25.936c.1-.503.215-1 .34-1.495-.125.495-.24.993-.34 1.496M.982 24.41c.384-1.52.875-2.997 1.464-4.422-.59 1.426-1.08 2.9-1.464 4.42"/><path fill="#E71F82" d="M64.666 32.333C64.666 14.476 50.19 0 32.333 0 18.85 0 7.298 8.256 2.447 19.987 7.23 41.22 24.385 57.77 45.944 61.66c11.054-5.137 18.722-16.334 18.722-29.327"/><path fill="#BA1F27" d="M41.725 61.486c9.51-4.42 16.506-13.324 18.28-23.996-9.28-8.873-21.86-14.324-35.712-14.324-8.36 0-16.253 1.987-23.24 5.51 7.005 16.875 22.22 29.48 40.672 32.81"/><path fill="#452567" d="M37.146 1.245c3.243 6.51 5.07 13.85 5.07 21.615 0 13.14-5.223 25.06-13.705 33.8 4.97 2.683 10.398 4.626 16.143 5.663 11.054-5.14 18.722-16.335 18.722-29.328 0-15.77-11.292-28.895-26.23-31.75"/><path fill="#F9AE23" d="M2.447 19.986v.002c-.59 1.425-1.08 2.902-1.465 4.42l-.007.033c-.124.495-.238.993-.34 1.496-.01.056-.018.112-.03.168-.09.46-.172.92-.243 1.388-.018.125-.03.253-.048.38-.055.4-.11.8-.15 1.204-.025.244-.038.492-.057.738-.022.29-.05.582-.065.875-.027.542-.04 1.088-.04 1.637L0 32.333c0 2.49.29 4.91.824 7.24.136.595.288 1.184.457 1.767.8 2.754 1.944 5.36 3.4 7.76 5.672 9.332 15.935 15.566 27.653 15.566.587 0 1.17-.017 1.748-.048.165-.01.326-.026.49-.037.417-.028.834-.06 1.247-.103.174-.02.346-.045.52-.066.403-.05.806-.102 1.205-.167.16-.026.318-.057.477-.085.413-.074.825-.152 1.233-.242.137-.03.273-.062.41-.094.43-.1.86-.208 1.287-.326.108-.03.216-.06.324-.092.456-.13.908-.27 1.356-.422.076-.026.153-.05.23-.077.482-.167.96-.344 1.434-.533.04-.017.082-.032.122-.048.515-.208 1.024-.428 1.526-.66v-.002C24.386 57.772 7.23 41.222 2.448 19.986"/><path fill="#449BD4" d="M32.333 0c13.54 7.565 22.695 19.923 22.695 36.534 0 16.496-9.03 30.882-22.414 38.49 18.856-2.718 33.346-18.94 33.346-38.55C65.96 16.77 52.643 0 32.333 0"/><path fill="#343434" d="M90.182 24.013h10.43v3.354c1.607-2.068 4.133-3.95 7.58-3.95 3.4 0 6.018 1.47 7.397 4.134 2.113-2.39 4.64-4.134 8.498-4.134 5.376 0 8.684 3.492 8.684 9.142v16.54h-10.43V35.82c0-2.113-1.24-3.307-2.756-3.307-1.516 0-2.894 1.194-2.894 3.308V49.1h-10.43V35.82c0-2.113-1.24-3.307-2.757-3.307-1.515 0-2.894 1.194-2.894 3.308V49.1H90.183V24.013zM134.934 36.647v-.092c0-7.075 5.88-13.14 14.15-13.14 8.225 0 14.06 5.973 14.06 13.048v.092c0 7.075-5.88 13.14-14.152 13.14-8.223 0-14.058-5.972-14.058-13.048m18.193 0v-.092c0-2.48-1.838-4.457-4.135-4.457-2.343 0-4.043 1.976-4.043 4.365v.092c0 2.48 1.837 4.457 4.134 4.457 2.344 0 4.043-1.975 4.043-4.365M165.488 24.013h10.43v3.492c1.607-2.068 4.133-4.09 7.672-4.09 5.283 0 8.59 3.493 8.59 9.143v16.54h-10.428V35.912c0-2.16-1.286-3.4-2.85-3.4-1.56 0-2.985 1.24-2.985 3.4v13.186h-10.43V24.013zM194.343 36.693V36.6c0-7.488 5.375-13.184 12.91-13.184 8.913 0 13.048 6.202 13.048 13.83 0 .55 0 1.193-.045 1.744H204.13c.734 2.206 2.48 3.354 4.73 3.354 1.885 0 3.447-.873 5.1-2.573l5.606 4.458c-2.48 3.216-6.02 5.467-11.44 5.467-8.225 0-13.783-5.19-13.783-13.002m16.448-2.297c-.23-2.39-1.653-3.768-3.49-3.768-1.747 0-2.988 1.47-3.31 3.768h6.8z"/><path fill="#343434" d="M220.532 53.968l3.032-7.122c1.884 1.058 3.63 1.655 4.594 1.655.598 0 1.15-.09 1.7-.367l-9.832-24.12h10.797l4.365 13.23 3.997-13.23H249.8l-8.685 23.34c-2.436 6.57-5.1 9.234-10.89 9.234-3.63 0-6.89-1.057-9.693-2.62M248.698 46.066l3.537-5.927c3.032 1.883 6.433 2.8 9.28 2.8 1.012 0 1.517-.228 1.517-.825v-.092c0-.505-.46-.827-2.986-1.47-6.34-1.563-10.245-3.262-10.245-8.454v-.093c0-5.513 4.41-8.59 10.935-8.59 4.135 0 8.224 1.055 11.257 2.893l-3.31 6.202c-2.664-1.47-5.88-2.343-7.993-2.343-1.012 0-1.47.275-1.47.78v.092c0 .505.55.827 3.078 1.47 6.34 1.563 10.153 3.308 10.153 8.454v.092c0 5.467-4.088 8.637-10.888 8.637-4.87 0-9.28-1.24-12.864-3.63M273.647 41.977v-.092c0-5.007 3.72-7.81 9.555-7.81 2.115 0 4.825.46 5.927.92v-.415c0-2.297-1.425-3.63-4.64-3.63-2.575 0-4.733.552-6.94 1.425l-1.837-6.937c2.895-1.103 6.202-1.838 10.567-1.838 5.1 0 8.407 1.056 10.612 3.262 1.884 1.883 2.62 4.318 2.62 7.948V49.1h-10.43V46.57c-1.746 1.884-4.09 3.124-7.214 3.124-4.82 0-8.22-2.757-8.22-7.72m15.574-2.16V38.76c-.597-.23-1.516-.413-2.39-.413-2.066 0-3.214 1.24-3.214 2.803v.09c0 1.472 1.056 2.436 2.388 2.436 1.838 0 3.216-1.47 3.216-3.86M299.285 24.013h10.935l4.044 12.588 4.088-12.587h10.796l-10.153 25.27h-9.557M330.62 15.56h10.798v6.662H330.62V15.56zm.185 8.453h10.43v25.085h-10.43V24.013zM344.45 24.013h10.43v3.492c1.608-2.068 4.134-4.09 7.673-4.09 5.283 0 8.592 3.493 8.592 9.143v16.54h-10.43V35.912c0-2.16-1.286-3.4-2.85-3.4-1.56 0-2.985 1.24-2.985 3.4v13.186h-10.43V24.013zM373.535 53.417l3.216-6.295c2.804 1.47 5.606 2.39 9.053 2.39 3.905 0 5.973-2.022 5.973-5.514v-.735c-1.425 1.608-3.768 3.446-7.26 3.446-6.478 0-11.164-4.596-11.164-11.533v-.092c0-7.03 4.778-11.67 10.567-11.67 3.674 0 5.834 1.378 7.67 3.262v-2.665h10.43v18.745c0 4.64-.964 7.81-3.262 10.108-2.25 2.25-5.696 3.676-11.302 3.676-5.56.002-9.878-1.102-13.92-3.123M391.82 35.13v-.09c0-2.16-1.653-3.906-4.18-3.906-2.573 0-4.182 1.792-4.182 3.998v.092c0 2.16 1.654 3.86 4.18 3.86 2.575 0 4.183-1.748 4.183-3.953M405.146 24.013h10.43v3.492c1.607-2.068 4.133-4.09 7.672-4.09 5.283 0 8.592 3.493 8.592 9.143v16.54h-10.43V35.912c0-2.16-1.286-3.4-2.85-3.4-1.56 0-2.985 1.24-2.985 3.4v13.186h-10.43V24.013zM434 36.693V36.6c0-7.488 5.376-13.184 12.91-13.184 8.914 0 13.05 6.202 13.05 13.83 0 .55 0 1.193-.047 1.744h-16.126c.735 2.206 2.48 3.354 4.732 3.354 1.883 0 3.444-.873 5.1-2.573l5.604 4.458c-2.48 3.216-6.02 5.467-11.44 5.467-8.224 0-13.783-5.19-13.783-13.002m16.45-2.297c-.23-2.39-1.655-3.768-3.493-3.768-1.746 0-2.987 1.47-3.308 3.768h6.8zM459.593 24.013h9.97l2.573 10.107 3.032-10.2h8.315l3.08 10.293 2.664-10.2h9.832l-7.674 25.27h-8.73l-3.353-10.752-3.446 10.752h-8.683M498.19 46.066l3.536-5.927c3.032 1.883 6.433 2.8 9.28 2.8 1.012 0 1.517-.228 1.517-.825v-.092c0-.505-.46-.827-2.986-1.47-6.34-1.563-10.245-3.262-10.245-8.454v-.093c0-5.513 4.41-8.59 10.935-8.59 4.135 0 8.224 1.055 11.257 2.893l-3.31 6.202c-2.664-1.47-5.88-2.343-7.993-2.343-1.01 0-1.47.275-1.47.78v.092c0 .505.552.827 3.08 1.47 6.34 1.563 10.152 3.308 10.152 8.454v.092c0 5.467-4.09 8.637-10.89 8.637-4.868 0-9.28-1.24-12.863-3.63"/><path fill="none" d="M-195.986-153.98h960v560h-960z"/></svg>