<svg xmlns="http://www.w3.org/2000/svg" width="523.104" height="75.024" viewBox="0 0 523.104 75.024"><path fill="#E71F82" d="M432.334 44.002c0-.707.04-1.53.12-2.47.08-.94.19-1.933.326-2.978.136-1.045.297-2.11.48-3.193.186-1.085.423-2.24.712-3.47.29-1.23.54-2.254.748-3.074.208-.818.417-1.493.626-2.023.13-.354.257-.635.385-.844.13-.21.28-.375.448-.495.17-.12.377-.2.626-.24s.56-.062.93-.062c.416 0 .742.02.975.06.232.04.405.138.518.29.112.153.18.374.205.663.023.29.036.683.036 1.18 0 .595-.042 1.44-.122 2.532s-.104 2.05-.072 2.868h.266c.32-.643.723-1.486 1.205-2.53.48-1.045.988-1.913 1.52-2.604.53-.69 1.132-1.273 1.807-1.748.675-.474 1.454-.71 2.338-.71.305 0 .603.052.892.156s.542.253.76.445c.217.193.39.43.518.71.13.282.193.6.193.953 0 .272-.04.655-.12 1.145-.08.49-.21 1.13-.387 1.917s-.306 1.434-.386 1.94c-.08.506-.12.928-.12 1.265 0 .58.056 1.06.17 1.446.11.387.26.696.444.93.185.232.394.397.627.493.232.096.478.145.735.145.723 0 1.47-.16 2.24-.48s1.48-.684 2.122-1.086c.755-.466 1.494-.996 2.218-1.59l-.362 5.64c-.418.272-.892.578-1.422.915-.53.338-1.097.655-1.7.952-.603.297-1.228.546-1.88.746-.65.2-1.312.302-1.987.302-1.205 0-2.178-.245-2.916-.735s-1.325-1.133-1.76-1.928c-.434-.796-.755-1.688-.963-2.676-.21-.99-.378-1.99-.507-3.002h-.386l-4.313 12.027c-.225.627-.437 1.145-.64 1.555-.2.41-.404.743-.613 1-.21.258-.434.438-.675.543s-.506.156-.795.156c-.66 0-1.19-.143-1.59-.423-.403-.28-.712-.658-.93-1.133-.217-.474-.36-1.013-.434-1.615s-.11-1.225-.11-1.868"/><path fill="#E71F82" d="M467.764 43.905c-.577.53-1.297 1.097-2.156 1.7s-1.787 1.156-2.783 1.662c-.997.506-2.013.928-3.05 1.266-1.036.337-2.02.506-2.952.506-.836 0-1.54-.117-2.11-.35-.57-.233-1.032-.56-1.385-.977-.354-.418-.607-.93-.76-1.53-.152-.604-.228-1.266-.228-1.99 0-1.01.112-2.192.338-3.542.462-2.79.76-4.358.894-4.704.22-.686.656-2.206 1.313-4.56.61-1.92.986-3.17 1.13-3.75.08-.404.3-.77.663-1.096.332-.292.706-.533 1.125-.72.418-.186.853-.323 1.303-.413.45-.09.856-.134 1.22-.134.662 0 1.112.124 1.35.373.236.25.354.583.354 1 0 .354-.082.854-.247 1.5s-.354 1.38-.564 2.206c-.212.825-.524 1.887-.94 3.185s-.696 2.404-.85 3.32c-.15.915-.342 1.825-.573 2.73-.23.902-.346 1.724-.346 2.463 0 .723.08 1.297.24 1.723.162.425.49.638.99.638.578 0 1.22-.2 1.928-.602.707-.4 1.422-.888 2.145-1.458.724-.57 1.43-1.16 2.12-1.77.692-.61 1.303-1.134 1.832-1.567v4.892zM456.992 18.61c0-.37.08-.793.24-1.264.16-.47.423-.912.783-1.326.362-.413.845-.763 1.447-1.046.603-.284 1.354-.426 2.253-.426.563 0 1.093.064 1.59.194.498.13.933.33 1.303.596.37.268.663.62.88 1.06.217.437.325.956.325 1.556 0 .552-.09 1.087-.266 1.606-.177.52-.457.98-.843 1.387s-.872.733-1.46.985c-.585.25-1.288.377-2.107.377-1.415 0-2.46-.337-3.134-1.012-.674-.67-1.01-1.568-1.01-2.687"/><path fill="#E71F82" d="M463.643 44.722c0-.357.063-.654.193-.89.128-.236.297-.46.506-.672.21-.21.45-.426.724-.646.272-.22.554-.49.843-.817L473.645 31c-.29-.132-.54-.253-.747-.367l-.568-.307c-.168-.09-.34-.157-.518-.207-.177-.05-.37-.074-.578-.074-.515 0-.94.01-1.277.024-.34.016-.624.07-.856.164-.233.093-.442.235-.627.423-.186.188-.39.453-.614.798-.5.75-.916 1.303-1.254 1.654-.338.352-.644.527-.917.527-.257 0-.438-.116-.542-.35-.103-.232-.155-.543-.155-.928 0-.16.008-.334.023-.52.016-.185.04-.373.072-.566.24-1.397.587-2.53 1.037-3.398.45-.867.95-1.538 1.506-2.013.555-.474 1.133-.795 1.735-.964s1.16-.254 1.675-.254c.386 0 .77.094 1.157.282.386.188.768.396 1.145.626.378.23.764.437 1.157.626.394.187.8.29 1.218.307.32.017.614.024.88.024h.734c.643 0 1.157-.01 1.543-.036s.68-.053.88-.086c.2-.032.34-.063.42-.086.082-.024.147-.036.194-.036.564 0 .97.2 1.218.6.25.402.374.946.374 1.633 0 .555-.05 1.028-.145 1.42-.032.13-.194.298-.482.502-.29.205-.77.396-1.446.576-.193.358-.515.863-.965 1.514-.45.652-.968 1.377-1.555 2.174-.587.798-1.237 1.702-1.952 2.712s-1.358 1.885-1.928 2.626c-.57.74-1.07 1.384-1.495 1.93-.426.545-.71.914-.855 1.11l-.12.488c.016 0 .16.058.434.17.273.115.595.242.963.38.37.14.76.265 1.17.38.41.113.768.17 1.073.17.675 0 1.29-.102 1.844-.305.554-.204 1.068-.46 1.542-.77s.916-.64 1.326-.99c.41-.35.803-.68 1.18-.988.378-.31.752-.567 1.122-.77.368-.204.755-.307 1.156-.307.306 0 .583.073.832.22.25.146.458.333.627.562.166.228.296.485.384.77.09.285.133.566.133.843 0 .454-.177.928-.53 1.42s-.827.975-1.422 1.444-1.286.915-2.073 1.337c-.787.423-1.61.794-2.47 1.115-.86.32-1.735.575-2.628.763-.892.188-1.73.282-2.52.282-.063 0-.23-.03-.505-.093s-.636-.166-1.086-.313-.972-.335-1.566-.566c-.595-.232-1.245-.524-1.952-.88-.61.186-1.14.278-1.59.278-.483 0-.9-.08-1.254-.243-.354-.162-.647-.382-.88-.66-.233-.277-.406-.594-.52-.948s-.17-.732-.17-1.133"/><path fill="#E71F82" d="M489.735 49.038c-1.5 0-2.813-.277-3.938-.833-1.126-.556-2.063-1.305-2.813-2.245s-1.313-2.027-1.688-3.263c-.375-1.234-.563-2.532-.563-3.89 0-.887.168-1.945.504-3.175.335-1.23.683-2.32 1.043-3.27.36-.952.81-1.86 1.354-2.725.544-.864 1.18-1.626 1.906-2.284.728-.658 1.54-1.18 2.445-1.57.903-.388 1.906-.582 3.01-.582.9 0 1.736.146 2.51.434.77.29 1.442.694 2.014 1.216.57.52 1.017 1.152 1.338 1.89.32.738.482 1.565.482 2.48 0 .974-.326 2.065-.978 3.275-.652 1.21-1.413 2.247-2.283 3.11-.87.864-1.905 1.634-3.105 2.31-1.2.676-2.5 1.202-3.9 1.58.24.424.48.777.713 1.06.234.283.472.503.714.66.242.156.495.268.762.33s.553.094.858.094c.965 0 1.98-.19 3.05-.566 1.068-.377 2.11-.85 3.12-1.414 1.014-.565 1.97-1.182 2.87-1.85.9-.668 1.662-1.3 2.29-1.897l3.108 3.158c-1.414 1.507-2.917 2.84-4.507 3.997-.69.497-1.435.985-2.23 1.465-.795.48-1.63.906-2.506 1.278-.876.372-1.784.67-2.724.894-.94.224-1.893.334-2.858.334m-3.218-11.478c.58 0 1.214-.146 1.898-.437.686-.29 1.322-.663 1.912-1.12.588-.454 1.165-1.067 1.73-1.838.562-.77.846-1.405.846-1.908 0-.707-.133-1.288-.4-1.744-.265-.455-.592-.684-.978-.684-.693 0-1.286.125-1.78.376-.49.25-.9.578-1.23.98-.332.4-.6.854-.8 1.366-.202.51-.436 1.144-.7 1.897-.27.753-.417 1.373-.45 1.86s-.048.904-.048 1.25"/><path fill="#E71F82" d="M499.126 39.942c.9-.78 1.63-1.43 2.193-1.95s1.124-1.123 1.687-1.813 1.008-1.256 1.338-1.694c.33-.438.72-.958 1.17-1.56.448-.6.995-1.336 1.638-2.205s1.48-1.952 2.507-3.252c.21-.292.44-.576.7-.853.255-.275.54-.523.854-.743.313-.22.658-.397 1.036-.535s.8-.207 1.266-.207c.77 0 1.366.085 1.784.256.418.17.724.378.916.62.193.243.306.5.338.77.032.266.048.498.048.693 0 .39-.153.82-.458 1.29s-.643.926-1.012 1.363c-.37.44-.72.842-1.05 1.207s-.518.638-.566.816c0 .503.036.962.11 1.376.072.414.172.82.295 1.218.124.398.25.82.383 1.268.13.446.257.962.377 1.547s.137 1.39.048 2.412c-.088 1.023-.132 2.055-.132 3.094.578-.39 1.2-.74 1.867-1.06.667-.315 1.362-.645 2.085-.985.724-.342 1.466-.72 2.23-1.133.762-.414 1.53-.914 2.3-1.5l.025 5.46c-.997.742-2.15 1.44-3.46 2.09-1.31.65-2.686 1.226-4.13 1.72-1.445.497-2.902.888-4.372 1.175-1.47.286-2.863.43-4.18.43-.95 0-1.833-.085-2.652-.253-.82-.17-1.54-.435-2.157-.797-.618-.36-1.12-.834-1.506-1.417-.386-.584-.618-1.29-.698-2.12-.226.05-.446.08-.664.098-.216.017-.43.023-.638.023-.258 0-.498-.006-.724-.022-.225-.018-.418-.077-.578-.183-.16-.105-.29-.276-.386-.512s-.145-.573-.145-1.012c0-.39.098-.75.29-1.083.193-.333.418-.63.675-.89.256-.26.515-.486.77-.682s.454-.35.58-.463m3.01 3.12c.192 0 .405.12.64.364.23.244.5.513.806.805.307.293.66.56 1.062.805.4.244.86.365 1.374.365.627 0 1.145-.105 1.555-.317.41-.21.736-.49.978-.84.24-.35.41-.755.506-1.218s.145-.946.145-1.45c0-.438-.03-.885-.085-1.34-.057-.454-.05-1.02.023-1.694.072-.672.057-1.19-.048-1.557s-.197-.68-.277-.938l-6.678 7.016z"/><path fill="#0D71B9" d="M40.95 63.496c-.426.118-.855.225-1.288.326.433-.1.86-.208 1.288-.326M35.817 64.477c-.413.045-.83.075-1.247.104.417-.028.834-.06 1.247-.103M44.293 62.37c-.473.19-.95.367-1.435.534.485-.167.963-.344 1.435-.533M42.63 62.98c-.448.152-.9.292-1.356.423.456-.13.908-.27 1.356-.422M37.542 64.243c-.4.064-.802.117-1.206.168.404-.05.807-.102 1.206-.167M39.252 63.916c-.408.09-.82.168-1.233.24.412-.072.824-.15 1.232-.24M4.68 49.1c5.672 9.332 15.934 15.566 27.653 15.566.586 0 1.17-.017 1.748-.048-.578.03-1.16.048-1.747.048-11.72 0-21.98-6.234-27.652-15.567M45.94 61.663c-.5.232-1.01.452-1.524.66.516-.208 1.023-.427 1.525-.66"/><path fill="#E71F82" d="M64.666 32.333C64.666 14.477 50.19 0 32.333 0 18.85 0 7.298 8.256 2.447 19.987 7.23 41.222 24.385 57.77 45.944 61.66c11.054-5.137 18.722-16.334 18.722-29.327"/><path fill="#BA1F27" d="M41.725 61.486c9.51-4.42 16.506-13.324 18.28-23.996-9.28-8.873-21.86-14.324-35.712-14.324-8.36 0-16.253 1.987-23.24 5.512 7.005 16.874 22.22 29.478 40.672 32.808"/><path fill="#452567" d="M37.146 1.245c3.243 6.51 5.07 13.85 5.07 21.615 0 13.14-5.223 25.06-13.705 33.8 4.97 2.683 10.398 4.626 16.143 5.663 11.054-5.14 18.722-16.335 18.722-29.328 0-15.77-11.292-28.894-26.23-31.75"/><path fill="#F9AE23" d="M2.447 19.986v.002c-.59 1.426-1.08 2.902-1.465 4.422l-.007.03c-.124.495-.238.993-.34 1.496-.01.057-.018.112-.03.168-.09.46-.172.92-.243 1.39-.018.124-.03.252-.048.38-.055.397-.11.798-.15 1.203-.025.243-.038.49-.057.737-.022.29-.05.582-.065.876-.027.542-.04 1.088-.04 1.638L0 32.333c0 2.49.29 4.91.824 7.24.136.595.288 1.184.457 1.767.8 2.754 1.944 5.36 3.4 7.76 5.672 9.332 15.935 15.566 27.653 15.566.587 0 1.17-.018 1.748-.048.165-.01.326-.026.49-.037.417-.028.834-.06 1.247-.103.174-.02.346-.045.52-.065.403-.05.806-.104 1.205-.168.16-.026.318-.058.477-.085.413-.075.825-.153 1.233-.243.137-.03.273-.063.41-.094.43-.102.86-.208 1.287-.326l.324-.093c.456-.13.908-.27 1.356-.422.076-.025.153-.05.23-.077.482-.166.96-.344 1.434-.532.04-.017.082-.032.122-.048.515-.208 1.024-.43 1.526-.66v-.002C24.386 57.77 7.23 41.223 2.448 19.986"/><path fill="#449BD4" d="M32.333 0c13.54 7.565 22.695 19.923 22.695 36.534 0 16.496-9.03 30.882-22.414 38.49C51.47 72.307 65.96 56.084 65.96 36.476 65.96 16.77 52.643 0 32.333 0"/><path fill="#343434" d="M90.182 24.014h10.43v3.354c1.607-2.067 4.133-3.95 7.58-3.95 3.4 0 6.018 1.47 7.397 4.134 2.113-2.39 4.64-4.135 8.498-4.135 5.376 0 8.684 3.492 8.684 9.143V49.1h-10.43V35.82c0-2.112-1.24-3.308-2.756-3.308-1.516 0-2.894 1.195-2.894 3.31v13.276h-10.43V35.82c0-2.112-1.24-3.308-2.757-3.308-1.515 0-2.894 1.195-2.894 3.31v13.276H90.183V24.014zM134.935 36.648v-.093c0-7.075 5.88-13.14 14.15-13.14 8.225 0 14.06 5.973 14.06 13.048v.092c0 7.076-5.88 13.14-14.152 13.14-8.223 0-14.058-5.97-14.058-13.047m18.192 0v-.093c0-2.48-1.838-4.456-4.135-4.456-2.343 0-4.043 1.975-4.043 4.363v.092c0 2.48 1.837 4.457 4.134 4.457 2.344 0 4.043-1.975 4.043-4.364M165.49 24.014h10.428v3.49c1.608-2.066 4.134-4.088 7.673-4.088 5.284 0 8.592 3.492 8.592 9.143V49.1h-10.43V35.91c0-2.158-1.285-3.4-2.848-3.4-1.56 0-2.986 1.242-2.986 3.4V49.1h-10.43V24.013zM194.343 36.694V36.6c0-7.487 5.375-13.185 12.91-13.185 8.913 0 13.048 6.202 13.048 13.83 0 .55 0 1.193-.045 1.745H204.13c.734 2.205 2.48 3.354 4.73 3.354 1.885 0 3.447-.873 5.1-2.572l5.606 4.456c-2.48 3.217-6.02 5.468-11.44 5.468-8.225 0-13.783-5.192-13.783-13.002m16.45-2.298c-.23-2.39-1.655-3.77-3.493-3.77-1.746 0-2.987 1.473-3.308 3.77h6.8z"/><path fill="#343434" d="M220.533 53.97l3.032-7.122c1.884 1.057 3.63 1.654 4.594 1.654.597 0 1.148-.092 1.7-.368l-9.833-24.12h10.797l4.365 13.23 3.996-13.23H249.8l-8.684 23.34c-2.436 6.57-5.1 9.234-10.89 9.234-3.63 0-6.89-1.058-9.693-2.62M248.7 46.066l3.536-5.927c3.032 1.883 6.433 2.802 9.28 2.802 1.012 0 1.517-.23 1.517-.827v-.092c0-.505-.46-.827-2.986-1.47-6.34-1.563-10.245-3.263-10.245-8.454v-.093c0-5.514 4.41-8.592 10.934-8.592 4.135 0 8.225 1.057 11.257 2.895l-3.31 6.202c-2.664-1.47-5.88-2.343-7.993-2.343-1.01 0-1.47.274-1.47.78v.092c0 .505.55.827 3.08 1.47 6.338 1.563 10.152 3.31 10.152 8.454v.092c0 5.468-4.09 8.638-10.89 8.638-4.87 0-9.28-1.24-12.863-3.63M273.648 41.978v-.092c0-5.008 3.72-7.81 9.555-7.81 2.115 0 4.825.458 5.928.918v-.414c0-2.297-1.423-3.63-4.638-3.63-2.574 0-4.733.552-6.938 1.425l-1.838-6.938c2.896-1.103 6.202-1.838 10.567-1.838 5.1 0 8.407 1.056 10.612 3.262 1.884 1.883 2.62 4.318 2.62 7.948v14.288h-10.43v-2.526c-1.746 1.884-4.09 3.124-7.215 3.124-4.823 0-8.222-2.757-8.222-7.718m15.574-2.16V38.76c-.597-.23-1.516-.413-2.39-.413-2.066 0-3.214 1.24-3.214 2.803v.092c0 1.47 1.056 2.436 2.388 2.436 1.838 0 3.216-1.47 3.216-3.86M299.286 24.014h10.934l4.043 12.588 4.09-12.588h10.796l-10.154 25.268h-9.557M330.623 15.56h10.798v6.662h-10.797V15.56zm.183 8.454h10.43V49.1h-10.43V24.013zM344.452 24.014h10.43v3.49c1.607-2.066 4.134-4.088 7.672-4.088 5.283 0 8.592 3.492 8.592 9.143V49.1h-10.43V35.91c0-2.158-1.286-3.4-2.85-3.4-1.56 0-2.985 1.242-2.985 3.4V49.1h-10.428V24.013zM373.536 53.418l3.216-6.295c2.803 1.47 5.605 2.39 9.05 2.39 3.907 0 5.975-2.02 5.975-5.514v-.736c-1.425 1.608-3.768 3.446-7.26 3.446-6.478 0-11.164-4.595-11.164-11.532v-.092c0-7.03 4.778-11.67 10.567-11.67 3.674 0 5.835 1.378 7.672 3.262v-2.664h10.43V42.76c0 4.64-.965 7.81-3.263 10.106-2.252 2.25-5.697 3.676-11.303 3.676-5.56 0-9.878-1.103-13.92-3.124m18.285-18.286v-.092c0-2.16-1.654-3.905-4.182-3.905-2.572 0-4.18 1.792-4.18 3.997v.092c0 2.16 1.653 3.86 4.18 3.86 2.573 0 4.182-1.747 4.182-3.952"/><path fill="#E71F82" d="M426.765 30.162c-1.725.552-3.343.04-4.572-.916-2.305 8.74-4.373 17.143-4.423 17.317-.155.34-.47.757-.9.895-.386.123-.7.46-1.107.59-.192.064-.398.077-.59.14l-.407.13c-1.104.352-1.568-.03-1.7-.437-.036-.118-.06-.27-.057-.43.277-5.08 8.414-31.933 9.582-34.394.408-.87.984-1.133 2.494-1.615l1.2-.383c.19-.06.425.26.532.597.062.19.067.373.033.517-.95 2.974-2.41 8.406-3.897 14.085.512.524 1.264.23 2.462-.15 6.23-1.993 11.744-10.942 10.817-13.84-1.08-3.382-5.69-3.255-10.195-1.814-4.816 1.54-11.725 7.368-13.773 10.294-.42.584-.515 1.116-.4 1.477.14.432.652.637 1.3.43.336-.107.69-.326 1.09-.64l.024-.006c.096-.03.196.2.28.464.077.24.138.512.09.606-.317.417-1.695 2.47-3.756 3.13-2.18.696-3.59-.57-4.188-2.44-1.332-4.17 6.248-12.933 19.094-17.04 8.51-2.72 14.292-.66 15.326 2.575 2.35 7.356-6.282 18.28-14.36 20.862"/><path fill="none" stroke="#E71F82" stroke-miterlimit="10" d="M426.765 30.162c-1.725.552-3.343.04-4.572-.916-2.305 8.74-4.373 17.143-4.423 17.317-.155.34-.47.757-.9.895-.386.123-.7.46-1.107.59-.192.064-.398.077-.59.14l-.407.13c-1.104.352-1.568-.03-1.7-.437-.036-.118-.06-.27-.057-.43.277-5.08 8.414-31.933 9.582-34.394.408-.87.984-1.133 2.494-1.615l1.2-.383c.19-.06.425.26.532.597.062.19.067.373.033.517-.95 2.974-2.41 8.406-3.897 14.085.512.524 1.264.23 2.462-.15 6.23-1.993 11.744-10.942 10.817-13.84-1.08-3.382-5.69-3.255-10.195-1.814-4.816 1.54-11.725 7.368-13.773 10.294-.42.584-.515 1.116-.4 1.477.14.432.652.637 1.3.43.336-.107.69-.326 1.09-.64l.024-.006c.096-.03.196.2.28.464.077.24.138.512.09.606-.317.417-1.695 2.47-3.756 3.13-2.18.696-3.59-.57-4.188-2.44-1.332-4.17 6.248-12.933 19.094-17.04 8.51-2.72 14.292-.66 15.326 2.575 2.35 7.356-6.282 18.28-14.36 20.862z"/></svg>