<svg xmlns="http://www.w3.org/2000/svg" width="49.635" height="49.631" viewBox="0 0 49.635 49.631"><path fill="#FFF" d="M6.373 0h36.892c3.505 0 6.37 2.866 6.37 6.37v36.893c0 3.504-2.865 6.368-6.37 6.368H6.373C2.868 49.63 0 46.768 0 43.264V6.37C0 2.867 2.868 0 6.373 0zm29.785 5.512c-1.23 0-2.234 1.008-2.234 2.238v5.346c0 1.23 1.004 2.236 2.234 2.236h5.61c1.228 0 2.233-1.005 2.233-2.236V7.75c0-1.23-1.005-2.238-2.233-2.238h-5.61zm7.865 15.476h-4.367c.414 1.353.64 2.78.64 4.262 0 8.253-6.91 14.947-15.432 14.947-8.52 0-15.43-6.694-15.43-14.947 0-1.483.227-2.91.64-4.262H5.517v20.968c0 1.086.886 1.97 1.97 1.97h34.564c1.086 0 1.97-.884 1.97-1.97V20.988zm-19.16-5.938c-5.502 0-9.966 4.323-9.966 9.66 0 5.332 4.463 9.658 9.967 9.658 5.506 0 9.97-4.326 9.97-9.658 0-5.337-4.464-9.66-9.97-9.66z"/></svg>