<svg width="33" height="33" viewBox="0 0 33.000003814697266 33.000003814697266" xmlns="http://www.w3.org/2000/svg" fill="#FFF"><path d="M16.5 0C7.387 0 0 7.387 0 16.5S7.387 33 16.5 33 33 25.613 33 16.5 25.613 0 16.5 0zm1.6 22.047c-1.5-.116-2.128-.86-3.303-1.573-.647 3.39-1.437 6.64-3.776 8.336-.72-5.123 1.06-8.97 1.89-13.055-1.412-2.375.17-7.155 3.145-5.977 3.662 1.45-3.17 8.83 1.416 9.752 4.79.963 6.746-8.31 3.776-11.325-4.29-4.354-12.49-.1-11.483 6.135.245 1.524 1.82 1.986.63 4.09-2.747-.61-3.567-2.775-3.46-5.663.17-4.727 4.246-8.036 8.336-8.494 5.17-.58 10.025 1.898 10.695 6.764.754 5.49-2.335 11.437-7.865 11.01z"/></svg>