<svg xmlns="http://www.w3.org/2000/svg" width="65.96" height="75.023" viewBox="0 0 65.96 75.023"><path fill="#5C5C5C" d="M40.95 63.496c-.427.117-.855.225-1.29.326.435-.1.863-.21 1.29-.326M35.817 64.477c-.414.044-.83.074-1.248.104.417-.03.833-.06 1.247-.103M.362 27.492c.07-.466.154-.928.243-1.388-.088.46-.172.922-.243 1.388M1.28 41.34c-.168-.584-.32-1.173-.456-1.77.136.597.288 1.186.457 1.77M44.294 62.37c-.474.19-.95.367-1.436.534.485-.167.962-.344 1.436-.533M0 32.333v-.006M42.63 62.98c-.448.152-.9.29-1.356.423.455-.13.908-.27 1.356-.423M.042 30.69c.015-.294.043-.584.064-.875-.02.29-.05.58-.064.875M.163 29.076c.04-.404.096-.804.15-1.204-.054.4-.11.8-.15 1.204M37.542 64.242c-.4.065-.803.118-1.207.168.404-.05.807-.103 1.207-.168M39.253 63.916c-.408.09-.82.167-1.234.242.413-.074.825-.153 1.233-.242M4.68 49.1c5.673 9.332 15.935 15.566 27.653 15.566.587 0 1.17-.018 1.748-.05-.578.032-1.16.05-1.747.05-11.72 0-21.98-6.234-27.652-15.567M45.94 61.662c-.5.233-1.01.453-1.524.66.515-.207 1.024-.426 1.525-.66M.636 25.936c.1-.502.215-1 .34-1.495-.125.496-.24.994-.34 1.496M.98 24.41c.386-1.52.876-2.997 1.466-4.422-.59 1.426-1.082 2.902-1.465 4.42M64.666 32.333C64.666 14.476 50.19 0 32.333 0 18.85 0 7.3 8.256 2.446 19.986 7.23 41.22 24.386 57.77 45.944 61.66c11.053-5.138 18.722-16.334 18.722-29.327"/><path fill="#5C5C5C" d="M41.725 61.486c9.508-4.42 16.506-13.324 18.278-23.997-9.278-8.873-21.858-14.324-35.71-14.324-8.36 0-16.253 1.987-23.24 5.51 7.005 16.875 22.22 29.48 40.672 32.81"/><path fill="#5C5C5C" d="M37.146 1.245c3.243 6.51 5.07 13.85 5.07 21.615 0 13.14-5.224 25.06-13.706 33.798 4.97 2.685 10.397 4.63 16.143 5.664 11.054-5.14 18.722-16.334 18.722-29.328 0-15.77-11.29-28.894-26.23-31.75"/><path fill="#5C5C5C" d="M2.447 19.986c-.59 1.427-1.08 2.904-1.466 4.423 0 .01-.004.02-.006.03-.125.495-.237.993-.34 1.496l-.028.168c-.09.46-.174.922-.244 1.388-.02.125-.03.253-.05.38-.054.4-.108.8-.148 1.203-.025.245-.038.493-.058.74-.02.29-.05.58-.064.875-.027.542-.04 1.09-.042 1.638v.006c0 2.49.29 4.91.824 7.24.136.595.288 1.183.457 1.767.8 2.755 1.943 5.362 3.4 7.76 5.67 9.333 15.934 15.567 27.652 15.567.587 0 1.17-.018 1.748-.05.164-.008.324-.024.488-.036.418-.027.834-.06 1.248-.103.174-.02.346-.045.52-.066.402-.05.806-.102 1.204-.167.16-.025.32-.057.478-.084.414-.075.826-.153 1.233-.243.14-.03.273-.063.41-.094.433-.102.863-.21 1.29-.326l.32-.092c.458-.132.91-.27 1.358-.423l.23-.077c.482-.168.962-.344 1.434-.533.04-.016.082-.03.123-.05.515-.206 1.024-.426 1.524-.66-21.555-3.89-38.71-20.44-43.493-41.676"/><path fill="#5C5C5C" d="M32.333 0c13.54 7.565 22.695 19.923 22.695 36.534 0 16.496-9.03 30.882-22.414 38.49 18.856-2.717 33.346-18.94 33.346-38.55C65.96 16.77 52.643 0 32.333 0"/></svg>